<svg width="393" height="852" viewBox="0 0 393 852" fill="none" xmlns="http://www.w3.org/2000/svg">
<g clip-path="url(#clip0_3020_1000)">
<rect width="393" height="852" fill="#EFF5F6"/>
<path d="M177 235C204.062 235 226 213.062 226 186C226 158.938 204.062 137 177 137C149.938 137 128 158.938 128 186C128 213.062 149.938 235 177 235Z" fill="url(#paint0_linear_3020_1000)"/>
<path d="M443.94 358.555C441.894 302.265 388.001 258.532 323.561 260.875C316.944 261.117 310.478 261.838 304.194 262.992C278.896 228.551 235.631 209.358 190.779 217.052C190.391 217.117 190.003 217.198 189.615 217.269C165.627 185.151 131.101 165 92.7254 165C50.5143 165 12.9699 189.378 -11.0233 227.241C-79.2635 232.471 -133 289.486 -133 359.054C-133 432.072 -73.8007 491.265 -0.772908 491.265C19.1685 491.265 38.0717 486.84 55.0298 478.939C66.9684 483.313 79.6227 485.671 92.7254 485.671C111.029 485.671 128.456 481.081 144.28 472.802C171.312 496.777 207.929 508.714 245.494 502.269C272.969 497.553 296.685 483.731 314.288 464.276C319.751 464.755 325.315 464.916 330.969 464.709C395.404 462.371 445.986 414.839 443.94 358.555Z" fill="url(#paint1_linear_3020_1000)"/>
<path d="M401.274 188.394C402.941 184.975 404.324 181.345 405.378 177.529C413.959 146.463 397.605 114.815 368.848 106.838C349.908 101.585 330.313 107.913 316.688 121.722C308.748 118.606 299.921 116.868 290.62 116.868C258.964 116.868 232.793 136.973 228.54 163.092C228.337 163.092 228.134 163.085 227.931 163.085C198.148 163.085 174 187.277 174 217.122C174 246.967 196.025 268.971 223.952 271.013C234.193 281.67 248.573 288.302 264.503 288.302C274.003 288.302 282.951 285.939 290.802 281.774C299.351 287.595 309.674 291 320.788 291C334.912 291 347.75 285.507 357.303 276.538C367.352 283.066 379.98 286.956 393.701 286.956C426.451 286.956 453 264.802 453 237.473C453 212.286 430.448 191.495 401.274 188.39V188.394Z" fill="url(#paint2_linear_3020_1000)"/>
<g opacity="0.33" clip-path="url(#clip1_3020_1000)">
<path d="M56 198.271C58.071 194.832 61.4585 192.373 65.1359 191.437C68.1274 190.664 71.3067 190.962 74.2238 191.961C74.5573 192.083 75.035 192.26 75.3642 192.384C75.785 192.573 76.506 192.886 76.9167 193.087C78.4939 193.885 80.0246 194.857 81.4577 195.926L82.9883 197.138L81.4897 197.063C85.9477 194.189 90.9898 192.282 96.1963 192.045C101.317 191.76 106.768 193.861 110 198.271C109.49 197.868 108.995 197.458 108.462 197.111C100.694 191.635 90.7378 194.617 83.252 199.244C83.0117 199.397 82.3505 199.838 82.1014 200C79.5658 197.819 76.8599 195.848 73.8655 194.587C73.7592 194.541 73.3704 194.377 73.2611 194.326C72.983 194.227 72.3101 193.984 72.0305 193.89C71.2732 193.672 70.4954 193.472 69.7236 193.337C69.2429 193.267 68.5075 193.177 68.0152 193.16C63.563 192.923 59.255 194.895 56 198.271Z" fill="#808080"/>
</g>
</g>
<defs>
<linearGradient id="paint0_linear_3020_1000" x1="177.754" y1="151.379" x2="175.651" y2="248.09" gradientUnits="userSpaceOnUse">
<stop stop-color="#F0A963"/>
<stop offset="1" stop-color="#FCEE21" stop-opacity="0"/>
</linearGradient>
<linearGradient id="paint1_linear_3020_1000" x1="158.642" y1="215.707" x2="151.433" y2="547.378" gradientUnits="userSpaceOnUse">
<stop stop-color="#A1C5E7"/>
<stop offset="1" stop-color="#F2F2F2" stop-opacity="0"/>
</linearGradient>
<linearGradient id="paint2_linear_3020_1000" x1="313.55" y1="108.466" x2="313.439" y2="388.017" gradientUnits="userSpaceOnUse">
<stop stop-color="#A1C5E7"/>
<stop offset="1" stop-color="#F2F2F2" stop-opacity="0"/>
</linearGradient>
<clipPath id="clip0_3020_1000">
<rect width="393" height="852" fill="white"/>
</clipPath>
<clipPath id="clip1_3020_1000">
<rect width="54" height="9" fill="white" transform="translate(56 191)"/>
</clipPath>
</defs>
</svg>
